<svg width="50" height="50" viewBox="0 0 50 50" fill="none" xmlns="http://www.w3.org/2000/svg">
<path d="M30.4688 34.4873H26.8506V22.6562C26.8506 22.4414 26.6749 22.2656 26.46 22.2656H23.5303C23.3155 22.2656 23.1397 22.4414 23.1397 22.6562V34.4873H19.5313C19.2042 34.4873 19.0235 34.8633 19.2237 35.1172L24.6924 42.0361C24.729 42.0828 24.7757 42.1206 24.829 42.1465C24.8823 42.1725 24.9408 42.186 25.0001 42.186C25.0593 42.186 25.1179 42.1725 25.1711 42.1465C25.2244 42.1206 25.2711 42.0828 25.3077 42.0361L30.7764 35.1172C30.9766 34.8633 30.796 34.4873 30.4688 34.4873Z" fill="white"/>
<path d="M39.6191 17.9053C37.3828 12.0068 31.6846 7.8125 25.0098 7.8125C18.335 7.8125 12.6367 12.002 10.4004 17.9004C6.21582 18.999 3.125 22.8125 3.125 27.3438C3.125 32.7393 7.49512 37.1094 12.8857 37.1094H14.8438C15.0586 37.1094 15.2344 36.9336 15.2344 36.7188V33.7891C15.2344 33.5742 15.0586 33.3984 14.8438 33.3984H12.8857C11.2402 33.3984 9.69238 32.7441 8.54004 31.5576C7.39258 30.376 6.78223 28.7842 6.83594 27.1338C6.87988 25.8447 7.31934 24.6338 8.11523 23.6133C8.93066 22.5732 10.0732 21.8164 11.3428 21.4795L13.1934 20.9961L13.8721 19.209C14.292 18.0957 14.8779 17.0557 15.6152 16.1133C16.3431 15.1792 17.2053 14.3582 18.1738 13.6768C20.1807 12.2656 22.5439 11.5186 25.0098 11.5186C27.4756 11.5186 29.8389 12.2656 31.8457 13.6768C32.8174 14.3604 33.6768 15.1807 34.4043 16.1133C35.1416 17.0557 35.7275 18.1006 36.1475 19.209L36.8213 20.9912L38.667 21.4795C41.3135 22.1924 43.1641 24.5996 43.1641 27.3438C43.1641 28.96 42.5342 30.4834 41.3916 31.626C40.8313 32.1896 40.1647 32.6364 39.4305 32.9407C38.6963 33.2449 37.909 33.4005 37.1143 33.3984H35.1562C34.9414 33.3984 34.7656 33.5742 34.7656 33.7891V36.7188C34.7656 36.9336 34.9414 37.1094 35.1562 37.1094H37.1143C42.5049 37.1094 46.875 32.7393 46.875 27.3438C46.875 22.8174 43.7939 19.0088 39.6191 17.9053Z" fill="white"/>
</svg>
